<?xml version="1.0" encoding="utf-8"?>
<!-- Generator: Adobe Illustrator 21.1.0, SVG Export Plug-In . SVG Version: 6.00 Build 0)  -->
<svg version="1.1" id="Layer_1" xmlns="http://www.w3.org/2000/svg" xmlns:xlink="http://www.w3.org/1999/xlink" x="0px" y="0px"
	 viewBox="0 0 338.9 324.2" style="enable-background:new 0 0 338.9 324.2;" xml:space="preserve">
<style type="text/css">
	.st0{fill:#1996FF;}
</style>
<path class="st0" d="M146.8,26.5c33.4,0,55.7,18.8,60.5,46.7c1.1,6.1,1.9,10.9,9.7,11.9c21.7,2.7,33.2,14.6,32.8,32.8
	c-0.4,18-13.5,29.9-34.6,31.2c-5.4,0.3-10.7,0.7-10.4,7.7c0.3,6.1,5.3,6.5,10.2,6.7c24,1,44.5-15.5,48.7-39c4-23-9.6-45.1-32.5-51.8
	c-6.7-1.9-9.9-4.8-12-11.6C203.3,10.7,141-4.7,103.3,32.3c-4.3,4.2-7.6,5.6-13.8,4c-19.4-5-37.8,7.3-39.4,26.6
	c-0.6,7.2-3.5,9.5-9.2,12.3c-20,9.5-30,30.8-25.2,52c4.9,21.4,24.1,36.4,46.3,36.2c5.1,0,11,0.5,11.4-6.5c0.5-7.9-5.8-7.5-11.3-7.8
	c-18.7-1.1-31.5-12.5-33-29.3c-1.5-16.9,9.2-30.9,27.4-34.4c8.6-1.6,11.3-5,8.4-13.4c-2.8-7.9,0-14.6,6.6-19.3
	c6.2-4.5,13.4-4.8,19.4-0.1c7.5,5.8,11.9,3.6,16.9-3.3C118.6,34,133.8,26.7,146.8,26.5z"/>
<path class="st0" d="M153.4,204.6C153.4,204.6,153.4,204.5,153.4,204.6c-20.4,0-40.9,0-61.3,0c-11.6,0-23.1,0-34.7,0
	c-4.7,0-9,1.5-9.2,6.6c-0.3,5.8,4.1,7.7,9.3,7.8c3.1,0,6.2,0,9.2,0c56.7,0,113.3,0,170,0c3.5,0,7-0.2,10.4,0.2
	c9.9,1.1,16.5,8.1,16.3,17.6c-0.1,9.3-4.8,15.3-14,17.2c-9.4,2-17.5-3.1-20.4-12.7c-1.6-5.3-1.2-13.5-9.7-10.8
	c-8.9,2.8-5.5,10.7-3.6,16.6c4.8,15.1,20.1,24.2,35.3,21.4c16.5-3,28.3-17.7,27-33.8c-1.3-17-14.5-29.8-32.3-30
	C215.1,204.3,184.2,204.6,153.4,204.6z"/>
<path class="st0" d="M187.8,189c27.8,0,55.6,0,83.3,0c10,0,20.1,0.4,30.1-0.3c13.3-1,23.5-12.6,23.6-25.7
	c0-13.2-10.3-24.7-23.3-25.9c-13-1.2-24.7,7.3-27.4,19.9c-1.1,5.2-1.5,10.7,4.8,12.4c5.9,1.6,8-3,9-7.9c0.2-0.8,0.3-1.5,0.6-2.2
	c2.3-5.8,6.5-8.6,12.7-7.5c5.7,1.1,8.7,5.1,8.9,10.6c0.2,6.1-3,10.5-9,11.8c-3.7,0.8-7.7,0.5-11.5,0.5c-69.1,0-138.1,0-207.2,0
	c-3.5,0-7,0-10.4,0.4c-3.4,0.5-5.6,2.8-5.8,6.2c-0.2,4.1,2,6.6,6,7.2c3,0.5,6.1,0.4,9.2,0.4C116.8,189,152.3,189,187.8,189z"/>
<path class="st0" d="M131.3,162.9C131.3,162.9,131.3,162.9,131.3,162.9c12.3,0,24.7,0.4,37-0.1c20.3-0.9,33.9-16.6,32.1-36.1
	c-1.5-16.2-15.8-28.8-32.4-28.6c-16.2,0.2-30.2,13-31.2,28.5c-0.3,4.5-0.1,9.1,5.1,10.3c5.9,1.3,8.2-2.7,9.1-7.9
	c0.2-1.1,0.3-2.3,0.6-3.4c2.8-8.8,8.8-13.7,18.1-12.9c9.8,0.8,15.6,6.7,16.3,16.4c0.7,9.2-4.1,15.6-12.9,18.2
	c-4,1.2-8.4,1.2-12.6,1.2c-21.6,0.1-43.2,0-64.8,0.1c-5.1,0-11.1,0-11.2,6.9c-0.1,6.7,5.4,7.5,10.8,7.5
	C107.4,162.9,119.4,162.9,131.3,162.9z"/>
<path class="st0" d="M125,241.4c-0.7,0.3-2.5,0.5-3.5,1.5c-12.6,12.4-25.1,24.8-37.5,37.4c-2.7,2.8-2.6,6.5,0.3,9.3
	c2.9,2.9,6.7,3,9.4,0.3c12.7-12.3,25.1-24.8,37.5-37.4c2.1-2.1,2.4-4.8,1.1-7.5C131.1,242.4,128.7,241.3,125,241.4z"/>
<path class="st0" d="M152.4,281.8c-2.1-6.4-6.1-9.3-11.3-5.1c-6.8,5.6-12.9,12.1-18.9,18.7c-2.5,2.8-2.3,6.6,0.7,9.4
	c3,2.8,6.4,2.7,9.3-0.1c6.1-5.9,12.1-11.9,18-18C151.5,285.4,151.8,283.3,152.4,281.8z"/>
<path class="st0" d="M194.7,293.2c5.5-0.1,21.6-16,20.9-20.5c-0.9-5.3-4.7-9.2-9.7-5.8c-6.2,4.3-12.1,9.8-16.4,15.9
	C186,287.7,188.7,292.4,194.7,293.2z"/>
<path class="st0" d="M83.9,247.8c-0.6-3.9-2.6-6.2-6.7-6.5c-5.1-0.4-18.7,13.1-18.5,18.2c0.2,4.1,2.6,6.2,6.5,6.5
	C70.3,266.4,84.1,252.7,83.9,247.8z"/>
<path class="st0" d="M164.2,265.9c4.8,0.2,18.1-12.4,18.2-17.4c0.1-4.7-2.4-7.2-7-7.2c-4.8,0-18,13.4-17.7,18
	C157.9,263.3,160,265.7,164.2,265.9z"/>
</svg>
